# This file uses centimeters as units for non-parametric coordinates.

mtllib corner2.mtl
g default
v -3.982919 -0.000000 2.667274
v -14.648300 -0.000000 1.874124
v -3.982919 5.822659 2.667274
v -14.648300 5.822659 1.874124
v -17.407841 -0.000000 -1.153252
v -17.407841 5.822659 -1.153252
v 0.000000 0.000000 -1.000000
v 0.000024 5.822659 -1.000026
v 0.000012 2.865347 -1.000012
v -17.407841 2.865347 -1.153252
v -14.648300 2.865347 1.874124
v -3.982919 2.865347 2.667274
v 0.000013 3.254661 -1.000014
v -17.407841 3.254661 -1.153252
v -14.648300 3.254661 1.874124
v -3.982919 3.254661 2.667274
v 0.000023 5.528251 -1.000025
v -17.407841 5.528251 -1.153252
v -14.648300 5.528251 1.874124
v -3.982919 5.528251 2.667274
v -3.941581 5.822659 2.785090
v -3.919447 5.796793 2.849343
v -3.910280 5.734345 2.875957
v -14.746230 5.734345 2.075341
v -14.734170 5.796793 2.050296
v -14.705053 5.822659 1.989830
v -14.705053 5.528251 1.989829
v -14.734170 5.554118 2.050295
v -14.746230 5.616565 2.075341
v -3.910280 5.616565 2.875957
v -3.919448 5.554118 2.849343
v -3.941581 5.528251 2.785091
v -17.585838 5.734345 -0.991002
v -17.566721 5.796793 -1.008428
v -17.520569 5.822659 -1.050497
v -17.566721 5.554118 -1.008428
v -17.585838 5.616565 -0.991002
v -17.520569 5.528251 -1.050497
v 0.163164 5.734345 -0.822844
v 0.103343 5.822659 -0.887814
v 0.145643 5.796793 -0.841873
v 0.163163 5.616565 -0.822843
v 0.145642 5.554118 -0.841872
v 0.103342 5.528251 -0.887813
v -17.585838 3.157342 -0.991002
v -17.564772 3.226157 -1.010205
v -17.513914 3.254661 -1.056564
v -14.700855 3.254661 1.981110
v -14.732940 3.226157 2.047742
v -14.746230 3.157342 2.075342
v -17.564772 2.893851 -1.010205
v -17.585838 2.962666 -0.991002
v -17.513914 2.865347 -1.056564
v -14.746230 2.962666 2.075342
v -14.732940 2.893851 2.047742
v -14.700855 2.865347 1.981110
v -3.944773 3.254661 2.775825
v -3.920383 3.226157 2.846629
v -3.910280 3.157342 2.875957
v -3.910280 2.962666 2.875957
v -3.920383 2.893851 2.846629
v -3.944773 2.865347 2.775825
v 0.163153 3.157342 -0.822832
v 0.097232 3.254661 -0.894428
v 0.143846 3.226157 -0.843802
v 0.163152 2.962666 -0.822831
v 0.143844 2.893851 -0.843801
v 0.097231 2.865347 -0.894426
vt -14.468970 0.000000
vt -3.774140 0.000000
vt -12.579260 0.000000
vt -8.482903 0.000000
vt 17.417320 5.822659
vt 0.008780 5.822659
vt 0.008803 0.000000
vt 17.417320 0.000000
vt -4.736750 0.000000
vt 0.677356 0.000000
vt -0.000024 -1.000026
vt 17.407841 -1.153252
vt 14.648300 1.874124
vt 3.982919 2.667274
vt -3.982919 2.667274
vt -14.648300 1.874124
vt -17.407841 -1.153252
vt -0.000024 -1.000026
vt 0.008792 2.865347
vt 17.417320 2.865347
vt -14.468970 2.865347
vt -4.736750 2.865347
vt 0.008790 3.254661
vt 17.417320 3.254661
vt -8.482903 3.254661
vt -3.774140 3.254661
vt 0.008781 5.528251
vt 17.417320 5.528251
vt -14.468970 5.528251
vt -4.736750 5.528251
vt -3.774140 5.734345
vt -14.468970 5.822659
vt -14.468970 5.616565
vt -3.774140 5.528251
vt -14.468970 5.734345
vt -3.774140 5.616565
vt -8.482903 5.616565
vt -4.736750 5.734345
vt -3.774140 5.822659
vt -14.468970 5.822659
vt -3.774140 5.822659
vt -3.774140 5.528251
vt -14.468970 5.528251
vt -8.482903 5.822659
vt -12.579260 5.822659
vt -8.483319 5.822659
vt -8.482903 5.528251
vt -4.736750 5.822659
vt 0.677389 5.528251
vt -4.736419 5.528251
vt -12.579260 5.528251
vt 0.677391 5.822659
vt -4.736419 5.822659
vt 0.677391 5.822659
vt 0.677390 5.734345
vt -8.482903 5.734345
vt -12.579260 5.734345
vt -12.579260 5.822659
vt -8.483319 5.528251
vt -12.579260 5.528251
vt -12.579260 5.616565
vt -4.736750 5.616565
vt 0.677390 5.616565
vt 0.677389 5.528251
vt -4.736750 5.822659
vt -3.774140 5.822659
vt -8.482903 5.822659
vt -14.468970 5.822659
vt -8.482903 5.528251
vt -14.468970 5.528251
vt -4.736750 5.528251
vt -3.774140 5.528251
vt -12.579260 5.822659
vt -12.579260 5.528251
vt 0.677391 5.822659
vt 0.677389 5.528251
vt -12.579260 3.157342
vt -8.482903 3.157342
vt -12.579260 2.865347
vt -8.483362 2.865347
vt -12.579260 2.962666
vt -8.482903 2.962666
vt -14.468970 3.157342
vt -3.774140 2.962666
vt -4.736750 3.157342
vt -12.579260 3.254661
vt -12.579260 3.254661
vt -8.483362 3.254661
vt -8.482903 2.865347
vt -14.468970 3.254661
vt -3.774140 3.254661
vt -3.774140 2.865347
vt -14.468970 2.865347
vt -4.736750 3.254661
vt 0.677373 2.865347
vt -4.736385 2.865347
vt -12.579260 2.865347
vt 0.677375 3.254661
vt -14.468971 3.254661
vt -3.774140 3.157342
vt -14.468971 2.962666
vt -3.774140 2.865347
vt -4.736385 3.254661
vt 0.677375 3.254661
vt 0.677375 3.157342
vt -4.736750 2.962666
vt 0.677373 2.962666
vt 0.677373 2.865347
vt -12.579260 3.254661
vt -14.468970 3.254661
vt -8.482903 3.254661
vt -12.579260 2.865347
vt -14.468970 2.865347
vt -8.482903 2.865347
vt -4.736750 3.254661
vt -3.774140 3.254661
vt -4.736750 2.865347
vt -3.774140 2.865347
vt 0.677375 3.254661
vt 0.677373 2.865347
vn 0.008803 0.000000 -0.999961
vn 0.008803 0.000000 -0.999961
vn 0.008802 -0.000002 -0.999961
vn 0.008802 -0.000002 -0.999961
vn 0.000000 1.000000 0.000000
vn 0.000000 1.000000 0.000000
vn 0.000000 1.000000 0.000000
vn 0.000000 1.000000 0.000000
vn -0.000000 -1.000000 0.000000
vn -0.000000 -1.000000 0.000000
vn -0.000000 -1.000000 0.000000
vn -0.000000 -1.000000 0.000000
vn 0.008803 -0.000002 -0.999961
vn 0.008803 -0.000002 -0.999961
vn 0.008803 0.000000 -0.999961
vn 0.008803 0.000000 -0.999961
vn -0.739043 0.000000 0.673659
vn -0.739043 0.000000 0.673659
vn -0.739042 0.000000 0.673659
vn -0.739042 0.000000 0.673659
vn -0.074162 -0.000000 0.997246
vn -0.074162 -0.000000 0.997246
vn -0.074162 0.000000 0.997246
vn -0.074162 0.000000 0.997246
vn 0.677356 0.000000 0.735656
vn 0.677356 0.000000 0.735656
vn 0.677356 0.000001 0.735656
vn 0.677356 0.000001 0.735656
vn 0.008802 -0.000002 -0.999961
vn 0.008802 -0.000002 -0.999961
vn -0.739043 0.000000 0.673659
vn -0.739043 0.000000 0.673659
vn -0.739043 0.000000 0.673659
vn -0.739043 0.000000 0.673659
vn -0.074162 0.000000 0.997246
vn -0.074162 0.000000 0.997246
vn -0.074162 0.000000 0.997246
vn -0.074162 0.000000 0.997246
vn 0.677356 0.000000 0.735656
vn 0.677356 0.000000 0.735656
vn 0.677356 0.000000 0.735656
vn 0.677356 0.000000 0.735656
vn -0.073038 0.132177 0.988532
vn -0.068076 0.382683 0.921368
vn -0.068076 0.382683 0.921368
vn -0.073030 0.133006 0.988421
vn 0.068448 0.933420 0.352195
vn 0.033354 0.984598 0.171621
vn -0.047435 0.984667 0.167871
vn -0.099087 0.931244 0.350665
vn -0.073030 -0.133007 0.988421
vn -0.068076 -0.382683 0.921368
vn -0.068076 -0.382683 0.921369
vn -0.073038 -0.132177 0.988532
vn -0.099087 -0.931246 0.350660
vn -0.047435 -0.984667 0.167870
vn 0.033354 -0.984599 0.171619
vn 0.068447 -0.933422 0.352192
vn -0.727197 0.132980 0.673424
vn -0.726303 0.141773 0.672596
vn -0.726301 -0.141778 0.672596
vn -0.727196 -0.132985 0.673425
vn 0.665448 0.141818 0.732849
vn 0.666345 0.132172 0.733836
vn 0.666343 -0.132175 0.733837
vn 0.665447 -0.141818 0.732849
vn 0.000000 -1.000000 0.000001
vn 0.000000 -1.000000 0.000001
vn -0.095870 0.991427 0.088783
vn 0.000000 -1.000000 -0.000001
vn -0.095870 -0.991427 0.088781
vn 0.088811 0.991235 0.097807
vn 0.000000 -1.000000 0.000000
vn 0.088811 -0.991235 0.097805
vn -0.673659 0.000000 -0.739042
vn -0.673659 0.000000 -0.739042
vn -0.673659 0.000000 -0.739042
vn -0.673659 0.000000 -0.739042
vn -0.673659 0.000000 -0.739042
vn -0.673659 0.000000 -0.739042
vn -0.673659 0.000000 -0.739042
vn -0.673659 0.000000 -0.739042
vn 0.735657 -0.000006 -0.677354
vn 0.735657 -0.000006 -0.677354
vn 0.735657 -0.000006 -0.677354
vn 0.735657 -0.000006 -0.677354
vn 0.735657 -0.000006 -0.677354
vn 0.735657 -0.000006 -0.677354
vn 0.735657 -0.000006 -0.677354
vn 0.735657 -0.000006 -0.677354
vn 0.257256 0.923880 0.283313
vn 0.621070 0.382684 0.683978
vn 0.621070 0.382684 0.683978
vn -0.677865 0.382686 0.627735
vn -0.677865 0.382686 0.627735
vn -0.280784 0.923876 0.260028
vn -0.280780 -0.923879 0.260021
vn -0.677867 -0.382674 0.627740
vn -0.677867 -0.382674 0.627740
vn 0.621068 -0.382682 0.683980
vn 0.621068 -0.382682 0.683980
vn 0.257257 -0.923880 0.283309
vn -0.106758 0.989358 0.098864
vn -0.280778 0.923880 0.260017
vn -0.099079 0.931247 0.350660
vn -0.051806 0.981682 0.183347
vn -0.677862 0.382683 0.627740
vn -0.729478 0.107292 0.675538
vn -0.730052 0.099772 0.676069
vn -0.677862 0.382683 0.627740
vn -0.729478 -0.107292 0.675538
vn -0.677862 -0.382683 0.627740
vn -0.677862 -0.382683 0.627740
vn -0.730052 -0.099772 0.676069
vn -0.280778 -0.923881 0.260015
vn -0.106758 -0.989358 0.098863
vn -0.051806 -0.981682 0.183350
vn -0.099079 -0.931246 0.350662
vn -0.073322 0.099091 0.992373
vn -0.073316 0.099793 0.992303
vn -0.073317 -0.099794 0.992303
vn -0.073322 -0.099091 0.992373
vn 0.668359 0.107330 0.736054
vn 0.668934 0.099087 0.736688
vn 0.668934 -0.099087 0.736688
vn 0.668359 -0.107328 0.736055
vn 0.000000 1.000000 -0.000002
vn 0.000000 1.000000 0.000000
vn 0.000000 -1.000000 0.000001
vn 0.000000 -1.000000 0.000002
vn 0.000000 1.000000 -0.000001
vn 0.036368 0.981662 0.187129
vn 0.000000 -1.000000 0.000002
vn 0.036368 -0.981661 0.187133
vn 0.000000 1.000000 0.000000
vn 0.098921 0.989114 0.108940
vn 0.000000 -1.000000 0.000001
vn 0.098922 -0.989114 0.108943
vn -0.673658 0.000000 -0.739043
vn -0.673658 0.000000 -0.739043
vn -0.673658 0.000000 -0.739043
vn -0.673658 0.000000 -0.739043
vn -0.673658 0.000000 -0.739043
vn -0.673658 0.000000 -0.739043
vn -0.673658 0.000000 -0.739043
vn -0.673658 0.000000 -0.739043
vn 0.735655 -0.000006 -0.677356
vn 0.735655 -0.000006 -0.677356
vn 0.735655 -0.000006 -0.677356
vn 0.735655 -0.000006 -0.677356
vn 0.735655 -0.000006 -0.677356
vn 0.735655 -0.000006 -0.677356
vn 0.735655 -0.000006 -0.677356
vn 0.735655 -0.000006 -0.677356
vn 0.068446 0.933423 0.352190
vn -0.068075 0.382682 0.921369
vn -0.068075 0.382682 0.921369
vn -0.068075 -0.382684 0.921368
vn -0.068075 -0.382684 0.921368
vn 0.068446 -0.933421 0.352194
vn 0.257255 0.923881 0.283310
vn 0.621072 0.382682 0.683977
vn 0.621072 0.382682 0.683977
vn 0.621070 -0.382682 0.683978
vn 0.621070 -0.382682 0.683978
vn 0.257256 -0.923879 0.283315
s 1
g corner2:Cube
usemtl corner2:ProBuilder_Default_URP
f 6/5/1 8/6/2 17/27/3 18/28/4
s 2
f 8/11/5 6/12/6 4/13/7 3/14/8
s off
f 1/15/9 2/16/10 5/17/11 7/18/12
s 1
f 10/20/13 9/19/14 7/7/15 5/8/16
s off
f 11/89/17 10/97/18 5/3/19 2/4/20
f 12/92/21 11/21/22 2/1/23 1/2/24
f 9/95/25 12/22/26 1/9/27 7/10/28
s 1
f 14/24/29 13/23/30 9/19/14 10/20/13
f 18/28/4 17/27/3 13/23/30 14/24/29
s off
f 19/47/31 18/51/32 14/86/33 15/25/34
f 20/42/35 19/29/36 15/90/37 16/26/38
f 17/49/39 20/30/40 16/94/41 13/98/42
s 4
f 23/31/43 22/66/44 25/68/45 24/35/46
s 2
f 22/66/47 21/41/48 26/32/49 25/68/50
s 4
f 29/33/51 28/70/52 31/72/53 30/36/54
s 6
f 28/70/55 27/43/56 32/34/57 31/72/58
s 4
f 23/31/43 24/35/46 29/33/51 30/36/54
s 7
f 24/56/59 33/57/60 37/61/61 29/37/62
s 8
f 39/55/63 23/38/64 30/62/65 42/63/66
s 2
f 3/39/8 4/40/7 26/32/49 21/41/48
s 6
f 19/29/67 20/42/68 32/34/57 27/43/56
s 2
f 4/44/7 6/45/6 35/58/69 26/46/49
s 6
f 18/51/70 19/47/67 27/59/56 38/60/71
s 2
f 8/52/5 3/48/8 21/53/48 40/54/72
s 6
f 20/30/68 17/49/73 44/64/74 32/50/57
s off
f 36/74/75 37/61/76 33/57/77 34/73/78 35/58/79 6/45/80 18/51/81 38/60/82
f 17/49/83 8/52/84 40/54/85 41/75/86 39/55/87 42/63/88 43/76/89 44/64/90
s 2
f 21/53/48 22/65/47 41/75/91 40/54/72
s 8
f 22/65/92 23/38/64 39/55/63 41/75/93
s 7
f 24/56/59 25/67/94 34/73/95 33/57/60
s 2
f 25/67/50 26/46/49 35/58/69 34/73/96
s 6
f 27/59/56 28/69/55 36/74/97 38/60/71
s 7
f 28/69/98 29/37/62 37/61/61 36/74/99
s 8
f 30/62/65 31/71/100 43/76/101 42/63/66
s 6
f 31/71/58 32/50/57 44/64/74 43/76/102
s 9
f 47/87/103 46/109/104 49/111/105 48/88/106
s 10
f 46/109/107 45/77/108 50/78/109 49/111/110
f 52/81/111 51/112/112 55/114/113 54/82/114
s 11
f 51/112/115 53/79/116 56/80/117 55/114/118
s 10
f 50/78/109 45/77/108 52/81/111 54/82/114
s 12
f 59/100/119 50/83/120 54/101/121 60/84/122
s 13
f 63/105/123 59/85/124 60/106/125 66/107/126
s 9
f 15/25/127 14/86/128 47/87/103 48/88/106
s 11
f 10/97/129 11/89/130 56/80/117 53/79/116
s 9
f 16/26/131 15/90/127 48/99/106 57/91/132
s 11
f 11/21/130 12/92/133 62/102/134 56/93/117
s 9
f 13/98/135 16/94/131 57/103/132 64/104/136
s 11
f 12/22/133 9/95/137 68/108/138 62/96/134
s off
f 51/112/139 52/81/140 45/77/141 46/109/142 47/87/143 14/86/144 10/97/145 53/79/146
f 9/95/147 13/98/148 64/104/149 65/119/150 63/105/151 66/107/152 67/120/153 68/108/154
s 9
f 48/99/106 49/110/105 58/116/155 57/91/132
s 12
f 49/110/156 50/83/120 59/100/119 58/116/157
f 54/101/121 55/113/158 61/118/159 60/84/122
s 11
f 55/113/118 56/93/117 62/102/134 61/118/160
s 9
f 57/103/132 58/115/155 65/119/161 64/104/136
s 13
f 58/115/162 59/85/124 63/105/123 65/119/163
f 60/106/125 61/117/164 67/120/165 66/107/126
s 11
f 61/117/160 62/96/134 68/108/138 67/120/166
