# This file uses centimeters as units for non-parametric coordinates.

mtllib Red Diagonal Lower.mtl
g default
v -0.000000 0.000000 0.000000
v -4.490037 0.000000 -0.156922
v -0.000015 4.385799 -0.099469
v -4.490079 4.385799 -0.214700
v -4.361599 0.000000 -10.726510
v -4.361600 4.385799 -10.626436
v 0.128463 0.000000 -10.569610
v 0.128464 4.385799 -10.511441
v -0.000013 3.851967 -0.011774
v -4.490071 3.851967 -0.158734
v -4.361599 3.851967 -10.714645
v 0.128464 3.851967 -10.567750
v 0.482485 4.385794 0.505799
v -5.007503 4.385790 0.336740
v -5.007497 3.851959 0.336733
v 0.482488 3.851963 0.505795
v -4.844101 4.385796 -11.232282
v -4.844101 3.851964 -11.232282
v 0.645888 4.385800 -11.063228
v 0.645888 3.851968 -11.063228
v -2.594591 5.265056 -9.186296
v -1.742656 5.265056 -9.186045
v -2.618958 5.265056 -1.573710
v -1.767023 5.265056 -1.563035
v -2.400844 5.407515 -8.851810
v -1.947811 5.407515 -8.841663
v -2.413802 5.407515 -1.864111
v -1.960770 5.407515 -1.843589
v -0.842016 4.721503 -0.753609
v -3.598468 4.721503 -0.842072
v -3.519598 4.721503 -9.970627
v -0.763146 4.721503 -9.901523
v 0.590492 4.274549 0.618768
v -5.122370 4.274547 0.446562
v -5.122364 3.963204 0.446555
v 0.590495 3.963207 0.618764
v -4.952107 4.274550 -11.345250
v -4.952107 3.963208 -11.345250
v 0.760755 4.274553 -11.173049
v 0.760755 3.963211 -11.173049
vt -0.000015 4.385799
vt -4.492818 4.385799
vt -4.492778 0.000000
vt 0.000000 0.000000
vt -0.102308 4.385841
vt -10.672720 4.385841
vt -10.672720 0.000042
vt -0.102353 0.000042
vt 4.733546 4.385799
vt 0.240742 4.385799
vt 0.240742 0.000000
vt 4.733546 0.000000
vt 10.570390 4.385799
vt 10.570390 0.000000
vt -0.128463 -10.569610
vt 4.361599 -10.726510
vt 4.490078 -0.156877
vt -4.490037 -0.156922
vt -4.361599 -10.726510
vt 0.128463 -10.569610
vt 0.000000 0.000000
vt -0.000012 3.672198
vt -4.492812 3.672198
vt -0.102315 3.672240
vt -10.672720 3.672240
vt 4.733546 3.672198
vt 0.240742 3.672198
vt 10.570390 3.672198
vt -0.000015 4.385799
vt -4.492818 4.385799
vt -4.492812 3.672198
vt -0.000012 3.672198
vt -0.102308 4.385841
vt -10.672720 4.385841
vt -10.672720 3.672240
vt -0.102315 3.672240
vt 4.733546 4.385799
vt 0.240742 4.385799
vt 0.240742 3.672198
vt 4.733546 3.672198
vt 10.570390 4.385799
vt 10.570390 3.672198
vt -0.128463 -10.569610
vt 4.361599 -10.726510
vt 4.490078 -0.156877
vt 0.000000 0.000000
vt -0.128463 -10.569610
vt 4.361599 -10.726510
vt 4.490078 -0.156877
vt 0.000000 0.000000
vt 0.000000 0.000000
vt 4.490078 -0.156877
vt 4.361599 -10.726510
vt -0.128463 -10.569610
vt -0.000015 4.385799
vt -4.492818 4.385799
vt -4.492812 3.672198
vt -0.000012 3.672198
vt -0.102308 4.385841
vt -10.672720 4.385841
vt -10.672720 3.672240
vt -0.102315 3.672240
vt 4.733546 4.385799
vt 0.240742 4.385799
vt 0.240742 3.672198
vt 4.733546 3.672198
vt 10.570390 4.385799
vt 10.570390 3.672198
vn -0.033820 0.001762 0.999426
vn -0.033820 0.001762 0.999426
vn -0.034928 -0.000006 0.999390
vn -0.034928 -0.000006 0.999390
vn -0.999926 0.000011 -0.012160
vn -0.999926 0.000011 -0.012160
vn -0.999926 -0.000009 -0.012151
vn -0.999926 -0.000009 -0.012151
vn 0.033810 0.001780 -0.999427
vn 0.033810 0.001780 -0.999427
vn 0.034923 0.000000 -0.999390
vn 0.034923 0.000000 -0.999390
vn 0.999926 0.000017 0.012162
vn 0.999926 0.000017 0.012162
vn 0.999926 0.000000 0.012153
vn 0.999926 0.000000 0.012153
vn 0.000000 1.000000 0.000000
vn 0.000000 1.000000 0.000000
vn 0.000000 1.000000 0.000000
vn 0.000000 1.000000 0.000000
vn 0.000000 -1.000000 -0.000000
vn 0.000000 -1.000000 -0.000000
vn 0.000000 -1.000000 -0.000000
vn 0.000000 -1.000000 -0.000000
vn -0.034928 -0.000006 0.999390
vn -0.034928 -0.000006 0.999390
vn -0.030130 -0.000019 0.999546
vn -0.030130 -0.000019 0.999546
vn -0.999926 -0.000009 -0.012151
vn -0.999926 -0.000009 -0.012151
vn -0.999896 -0.000010 -0.014437
vn -0.999896 -0.000010 -0.014437
vn 0.034923 0.000000 -0.999390
vn 0.034923 0.000000 -0.999390
vn 0.030129 0.000000 -0.999546
vn 0.030129 0.000000 -0.999546
vn 0.999926 0.000000 0.012153
vn 0.999926 0.000000 0.012153
vn 0.999896 0.000005 0.014437
vn 0.999896 0.000005 0.014437
vn 0.000000 1.000000 0.000000
vn 0.000000 1.000000 0.000000
vn -0.034928 -0.000006 0.999390
vn -0.034928 -0.000006 0.999390
vn 0.000008 -1.000000 -0.000004
vn -0.000002 -1.000000 -0.000004
vn 0.257121 -0.957750 0.128859
vn -0.260066 -0.958198 0.119260
vn 0.000000 1.000000 0.000000
vn -0.999926 -0.000009 -0.012151
vn 0.000008 -1.000000 0.000001
vn -0.257122 -0.957749 -0.128859
vn 0.000000 1.000000 0.000000
vn 0.034923 0.000000 -0.999390
vn -0.000002 -1.000000 0.000000
vn 0.260065 -0.958198 -0.119259
vn 0.000000 1.000000 0.000000
vn 0.000000 1.000000 0.000000
vn 0.011805 0.872175 -0.489052
vn 0.011808 0.872443 -0.488572
vn 0.000000 1.000000 0.000000
vn 0.000000 1.000000 0.000000
vn -0.404490 0.914536 -0.003596
vn -0.402976 0.915204 -0.003604
vn 0.000000 1.000000 0.000000
vn 0.000000 1.000000 0.000000
vn -0.013530 0.875199 0.483574
vn -0.013527 0.875267 0.483451
vn 0.000000 1.000000 0.000000
vn 0.000000 1.000000 0.000000
vn 0.404958 0.914328 0.003588
vn 0.402515 0.915406 0.003602
vn 0.003083 0.922096 -0.386949
vn 0.003083 0.922096 -0.386949
vn 0.000000 1.000000 0.000000
vn 0.000000 1.000000 0.000000
vn -0.581112 0.813822 -0.001486
vn -0.581112 0.813822 -0.001486
vn 0.000000 1.000000 0.000000
vn 0.000000 1.000000 0.000000
vn -0.010670 0.894812 0.446317
vn -0.010670 0.894811 0.446317
vn 0.000000 1.000000 0.000000
vn 0.000000 1.000000 0.000000
vn 0.581378 0.813632 0.001484
vn 0.581378 0.813632 0.001484
vn 0.000000 1.000000 0.000000
vn 0.000000 1.000000 0.000000
vn 0.000000 1.000000 0.000000
vn 0.000000 1.000000 0.000000
vn 0.000000 1.000000 0.000000
vn 0.000000 1.000000 0.000000
vn 0.000000 1.000000 0.000000
vn 0.000000 1.000000 0.000000
vn 0.000000 1.000000 0.000000
vn 0.000000 1.000000 0.000000
vn -0.034928 -0.000006 0.999390
vn -0.034928 -0.000006 0.999390
vn 0.533347 -0.802533 0.267361
vn -0.546760 -0.798886 0.250668
vn -0.999926 -0.000009 -0.012151
vn -0.533353 -0.802531 -0.267356
vn 0.034923 0.000000 -0.999390
vn 0.546756 -0.798890 -0.250664
s off
g Red_Diagonal_Lower:Cube
usemtl Red_Diagonal_Lower:ProBuilder_Default_URP
f 9/22/1 10/23/2 2/3/3 1/4/4
f 10/24/5 11/25/6 5/7/7 2/8/8
f 11/26/9 12/27/10 7/11/11 5/12/12
f 12/28/13 9/22/14 1/4/15 7/14/16
f 26/47/17 25/48/18 27/49/19 28/50/20
f 1/4/21 2/18/22 5/19/23 7/20/24
f 33/55/25 34/56/26 35/57/27 36/58/28
f 34/59/29 37/60/30 38/61/31 35/62/32
f 37/63/33 39/64/34 40/65/35 38/66/36
f 39/67/37 33/55/38 36/58/39 40/68/40
s 1
f 3/1/41 4/2/42 14/30/43 13/29/44
s 2
f 10/23/45 9/22/46 16/32/47 15/31/48
s 1
f 4/5/42 6/6/49 17/34/50 14/33/43
s 2
f 11/25/51 10/24/45 15/36/48 18/35/52
s 1
f 6/9/49 8/10/53 19/38/54 17/37/50
s 2
f 12/27/55 11/26/51 18/40/52 20/39/56
s 1
f 8/13/53 3/1/41 13/29/44 19/41/54
s 2
f 9/22/46 12/28/55 20/42/56 16/32/47
s 3
f 8/15/57 6/16/58 31/53/59 32/54/60
s 4
f 6/16/61 4/17/62 30/52/63 31/53/64
s 5
f 4/17/65 3/21/66 29/51/67 30/52/68
s 6
f 3/21/69 8/15/70 32/54/71 29/51/72
s off
f 22/43/73 21/44/74 25/48/75 26/47/76
f 21/44/77 23/45/78 27/49/79 25/48/80
f 23/45/81 24/46/82 28/50/83 27/49/84
f 24/46/85 22/43/86 26/47/87 28/50/88
s 5
f 30/52/68 29/51/67 24/46/89 23/45/90
s 4
f 31/53/64 30/52/63 23/45/91 21/44/92
s 3
f 32/54/60 31/53/59 21/44/93 22/43/94
s 6
f 29/51/72 32/54/71 22/43/95 24/46/96
s 1
f 13/29/44 14/30/43 34/56/97 33/55/98
s 2
f 15/31/48 16/32/47 36/58/99 35/57/100
s 1
f 14/33/43 17/34/50 37/60/101 34/59/97
s 2
f 18/35/52 15/36/48 35/62/100 38/61/102
s 1
f 17/37/50 19/38/54 39/64/103 37/63/101
s 2
f 20/39/56 18/40/52 38/66/102 40/65/104
s 1
f 19/41/54 13/29/44 33/55/98 39/67/103
s 2
f 16/32/47 20/42/56 40/68/104 36/58/99
