# ProBuilder 4.2.3
# https://unity3d.com/unity/features/worldbuilding/probuilder
# 4/9/2020 5:04:55 PM

mtllib ./Building_2.mtl
o Building 2

g Cube
v 6.555359 2.235174E-08 0.9415283
v -1 2.235174E-08 0.9415283
v 6.555359 6.470194 0.9415283
v -1 6.470194 0.9415283
v -1 2.235174E-08 -8.830444
v -1 6.470194 -8.830444
v 6.555359 2.235174E-08 -0.01275635
v 6.555359 6.470194 -0.01275635

vt 6.555359 2.235174E-08
vt -1 2.235174E-08
vt 6.555359 6.470194
vt -1 6.470194
vt 0.9415283 2.235174E-08
vt -8.830444 2.235174E-08
vt 0.9415283 6.470194
vt -8.830444 6.470194
vt 7.356232 2.235174E-08
vt -4.255619 2.235174E-08
vt 7.356232 6.470194
vt -4.255619 6.470194
vt 0.01275635 2.235174E-08
vt -0.9415283 2.235174E-08
vt 0.01275635 6.470194
vt -0.9415283 6.470194
vt -6.555359 0.9415283
vt 1 0.9415283
vt -6.555359 -0.01275635
vt 1 -8.830444
vt 6.555359 -0.01275635
vt -1 -8.830444
vt 6.555359 0.9415283
vt -1 0.9415283

vn 0 0 1
vn -1 0 0
vn 0.7593698 0 -0.6506593
vn 1 0 0
vn 0 1 0
vn 0 -1 0

usemtl ProBuilder_Default_URP
f 3/3/1 4/4/1 2/2/1 1/1/1
f 4/7/2 6/8/2 5/6/2 2/5/2
f 6/11/3 8/12/3 7/10/3 5/9/3
f 8/15/4 3/16/4 1/14/4 7/13/4
f 8/19/5 6/20/5 4/18/5 3/17/5
f 1/23/6 2/24/6 5/22/6 7/21/6

