# ProBuilder 4.2.3
# https://unity3d.com/unity/features/worldbuilding/probuilder
# 4/9/2020 4:34:22 PM

mtllib ./Building_1.mtl
o Building 1

g Cube
v 9.54126 2.235174E-08 3.52063
v -4.274231 2.235174E-08 3.52063
v 9.54126 10.38835 3.52063
v -4.274231 10.38835 3.52063
v -1 0 -1
v -1 10.38835 -1
v 8.925476 2.235174E-08 -1
v 8.925476 10.38835 -1

vt 9.54126 2.235174E-08
vt -4.274231 2.235174E-08
vt 9.54126 10.38835
vt -4.274231 10.38835
vt 5.358521 2.235174E-08
vt -0.2232962 0
vt 5.358521 10.38835
vt -0.2232962 10.38835
vt 1 0
vt -8.925476 2.235174E-08
vt 1 10.38835
vt -8.925476 10.38835
vt -0.2138212 2.235174E-08
vt -4.776198 2.235174E-08
vt -0.2138212 10.38835
vt -4.776198 10.38835
vt -9.54126 3.52063
vt 4.274231 3.52063
vt -8.925476 -1
vt 1 -1
vt 8.925476 -1
vt -1 -1
vt 9.54126 3.52063
vt -4.274231 3.52063

vn 0 0 1
vn -0.809885 0 -0.5865887
vn 0 0 -1
vn 0.9908497 0 -0.1349699
vn 0 1 0
vn 2.251957E-09 -1 -3.067533E-10

usemtl ProBuilder_Default_URP
f 3/3/1 4/4/1 2/2/1 1/1/1
f 4/7/2 6/8/2 5/6/2 2/5/2
f 6/11/3 8/12/3 7/10/3 5/9/3
f 8/15/4 3/16/4 1/14/4 7/13/4
f 8/19/5 6/20/5 4/18/5 3/17/5
f 1/23/6 2/24/6 5/22/6 7/21/6

